<mxfile host="app.diagrams.net" modified="2022-04-16T01:03:17.707Z" agent="5.0 (Windows)" etag="h4e3CjLtvDmq1nbYxn0-" version="17.4.5" type="github">
  <diagram id="0mdSYScjWCPgBPlkuswg" name="Page-1">
    <mxGraphModel dx="1328" dy="1154" grid="1" gridSize="10" guides="1" tooltips="1" connect="1" arrows="1" fold="1" page="1" pageScale="1" pageWidth="850" pageHeight="1100" math="0" shadow="0">
      <root>
        <mxCell id="0" />
        <mxCell id="1" parent="0" />
        <mxCell id="83c7Uw7BSurRXPV7c4tu-4" value="" style="pointerEvents=1;verticalLabelPosition=bottom;shadow=0;dashed=0;align=center;html=1;verticalAlign=top;shape=mxgraph.electrical.miscellaneous.light_bulb;" parent="1" vertex="1">
          <mxGeometry x="310" y="150" width="60" height="50" as="geometry" />
        </mxCell>
        <mxCell id="83c7Uw7BSurRXPV7c4tu-5" value="" style="pointerEvents=1;verticalLabelPosition=bottom;shadow=0;dashed=0;align=center;html=1;verticalAlign=top;shape=mxgraph.electrical.resistors.resistor_2;" parent="1" vertex="1">
          <mxGeometry x="390" y="350" width="100" height="20" as="geometry" />
        </mxCell>
        <mxCell id="83c7Uw7BSurRXPV7c4tu-13" value="" style="group" parent="1" vertex="1" connectable="0">
          <mxGeometry x="640" y="440" width="240" height="115" as="geometry" />
        </mxCell>
        <mxCell id="Z7ZbEPt0gSPzM43egvNZ-70" value="" style="group" vertex="1" connectable="0" parent="83c7Uw7BSurRXPV7c4tu-13">
          <mxGeometry width="240" height="60" as="geometry" />
        </mxCell>
        <mxCell id="Z7ZbEPt0gSPzM43egvNZ-69" value="" style="group" vertex="1" connectable="0" parent="Z7ZbEPt0gSPzM43egvNZ-70">
          <mxGeometry width="110" height="60" as="geometry" />
        </mxCell>
        <mxCell id="83c7Uw7BSurRXPV7c4tu-7" value="" style="whiteSpace=wrap;html=1;aspect=fixed;" parent="Z7ZbEPt0gSPzM43egvNZ-69" vertex="1">
          <mxGeometry x="20" width="60" height="60" as="geometry" />
        </mxCell>
        <mxCell id="83c7Uw7BSurRXPV7c4tu-8" value="" style="rounded=0;whiteSpace=wrap;html=1;" parent="Z7ZbEPt0gSPzM43egvNZ-69" vertex="1">
          <mxGeometry y="10" width="20" height="10" as="geometry" />
        </mxCell>
        <mxCell id="83c7Uw7BSurRXPV7c4tu-9" value="" style="rounded=0;whiteSpace=wrap;html=1;" parent="Z7ZbEPt0gSPzM43egvNZ-69" vertex="1">
          <mxGeometry y="25" width="20" height="10" as="geometry" />
        </mxCell>
        <mxCell id="83c7Uw7BSurRXPV7c4tu-10" value="" style="rounded=0;whiteSpace=wrap;html=1;" parent="Z7ZbEPt0gSPzM43egvNZ-69" vertex="1">
          <mxGeometry y="40" width="20" height="10" as="geometry" />
        </mxCell>
        <mxCell id="83c7Uw7BSurRXPV7c4tu-12" value="" style="rounded=0;whiteSpace=wrap;html=1;" parent="Z7ZbEPt0gSPzM43egvNZ-69" vertex="1">
          <mxGeometry x="80" y="17.5" width="30" height="25" as="geometry" />
        </mxCell>
        <mxCell id="Z7ZbEPt0gSPzM43egvNZ-67" value="" style="ellipse;whiteSpace=wrap;html=1;aspect=fixed;fontSize=17;" vertex="1" parent="Z7ZbEPt0gSPzM43egvNZ-69">
          <mxGeometry x="67" y="26.25" width="7.5" height="7.5" as="geometry" />
        </mxCell>
        <mxCell id="Z7ZbEPt0gSPzM43egvNZ-68" value="DISTRIBUTOR" style="text;html=1;align=center;verticalAlign=middle;resizable=0;points=[];autosize=1;strokeColor=none;fillColor=none;fontSize=17;" vertex="1" parent="Z7ZbEPt0gSPzM43egvNZ-70">
          <mxGeometry x="110" y="15" width="130" height="30" as="geometry" />
        </mxCell>
        <mxCell id="Z7ZbEPt0gSPzM43egvNZ-47" value="" style="group" vertex="1" connectable="0" parent="1">
          <mxGeometry x="120" y="500" width="130" height="100" as="geometry" />
        </mxCell>
        <mxCell id="Z7ZbEPt0gSPzM43egvNZ-44" value="12V BATTERY" style="rounded=0;whiteSpace=wrap;html=1;fontSize=17;" vertex="1" parent="Z7ZbEPt0gSPzM43egvNZ-47">
          <mxGeometry width="130" height="100" as="geometry" />
        </mxCell>
        <mxCell id="Z7ZbEPt0gSPzM43egvNZ-45" value="NEG" style="text;html=1;align=center;verticalAlign=middle;resizable=0;points=[];autosize=1;strokeColor=none;fillColor=none;fontSize=17;fontStyle=1" vertex="1" parent="Z7ZbEPt0gSPzM43egvNZ-47">
          <mxGeometry width="50" height="30" as="geometry" />
        </mxCell>
        <mxCell id="Z7ZbEPt0gSPzM43egvNZ-46" value="POS" style="text;html=1;align=center;verticalAlign=middle;resizable=0;points=[];autosize=1;strokeColor=none;fillColor=none;fontSize=17;fontStyle=1" vertex="1" parent="Z7ZbEPt0gSPzM43egvNZ-47">
          <mxGeometry x="80" width="50" height="30" as="geometry" />
        </mxCell>
        <mxCell id="Z7ZbEPt0gSPzM43egvNZ-54" value="" style="group" vertex="1" connectable="0" parent="1">
          <mxGeometry x="610" y="640" width="150" height="115" as="geometry" />
        </mxCell>
        <mxCell id="Z7ZbEPt0gSPzM43egvNZ-52" value="STARTER" style="text;html=1;align=center;verticalAlign=middle;resizable=0;points=[];autosize=1;strokeColor=none;fillColor=none;fontSize=17;" vertex="1" parent="Z7ZbEPt0gSPzM43egvNZ-54">
          <mxGeometry x="30" y="85" width="90" height="30" as="geometry" />
        </mxCell>
        <mxCell id="Z7ZbEPt0gSPzM43egvNZ-48" value="" style="rounded=0;whiteSpace=wrap;html=1;fontSize=17;" vertex="1" parent="Z7ZbEPt0gSPzM43egvNZ-54">
          <mxGeometry x="10" y="15" width="100" height="60" as="geometry" />
        </mxCell>
        <mxCell id="Z7ZbEPt0gSPzM43egvNZ-49" value="" style="rounded=0;whiteSpace=wrap;html=1;fontSize=17;" vertex="1" parent="Z7ZbEPt0gSPzM43egvNZ-54">
          <mxGeometry x="110" y="32.5" width="40" height="25" as="geometry" />
        </mxCell>
        <mxCell id="Z7ZbEPt0gSPzM43egvNZ-50" value="" style="rounded=0;whiteSpace=wrap;html=1;fontSize=17;" vertex="1" parent="Z7ZbEPt0gSPzM43egvNZ-54">
          <mxGeometry x="30" width="10" height="15" as="geometry" />
        </mxCell>
        <mxCell id="Z7ZbEPt0gSPzM43egvNZ-51" value="" style="rounded=0;whiteSpace=wrap;html=1;fontSize=17;" vertex="1" parent="Z7ZbEPt0gSPzM43egvNZ-54">
          <mxGeometry y="35" width="10" height="20" as="geometry" />
        </mxCell>
        <mxCell id="Z7ZbEPt0gSPzM43egvNZ-61" value="" style="group" vertex="1" connectable="0" parent="1">
          <mxGeometry x="504" y="20" width="300" height="190" as="geometry" />
        </mxCell>
        <mxCell id="83c7Uw7BSurRXPV7c4tu-1" value="" style="ellipse;whiteSpace=wrap;html=1;aspect=fixed;" parent="Z7ZbEPt0gSPzM43egvNZ-61" vertex="1">
          <mxGeometry width="190" height="190" as="geometry" />
        </mxCell>
        <mxCell id="83c7Uw7BSurRXPV7c4tu-3" value="&lt;div&gt;DELCO TYPE&lt;/div&gt;&lt;div&gt;10SI&lt;/div&gt;&lt;div&gt;ALTERNATOR&lt;br&gt;&lt;/div&gt;" style="text;html=1;align=center;verticalAlign=middle;resizable=0;points=[];autosize=1;strokeColor=none;fillColor=none;fontStyle=1" parent="Z7ZbEPt0gSPzM43egvNZ-61" vertex="1">
          <mxGeometry x="210" y="70" width="90" height="50" as="geometry" />
        </mxCell>
        <mxCell id="Z7ZbEPt0gSPzM43egvNZ-55" value="" style="rounded=0;whiteSpace=wrap;html=1;fontSize=17;" vertex="1" parent="Z7ZbEPt0gSPzM43egvNZ-61">
          <mxGeometry x="81" y="10" width="8" height="20" as="geometry" />
        </mxCell>
        <mxCell id="Z7ZbEPt0gSPzM43egvNZ-57" value="" style="rounded=0;whiteSpace=wrap;html=1;fontSize=17;" vertex="1" parent="Z7ZbEPt0gSPzM43egvNZ-61">
          <mxGeometry x="101" y="10" width="8" height="20" as="geometry" />
        </mxCell>
        <mxCell id="Z7ZbEPt0gSPzM43egvNZ-58" value="" style="ellipse;whiteSpace=wrap;html=1;aspect=fixed;fontSize=17;" vertex="1" parent="Z7ZbEPt0gSPzM43egvNZ-61">
          <mxGeometry x="10" y="85" width="20" height="20" as="geometry" />
        </mxCell>
        <mxCell id="Z7ZbEPt0gSPzM43egvNZ-59" value="1&amp;nbsp; 2" style="text;html=1;align=center;verticalAlign=middle;resizable=0;points=[];autosize=1;strokeColor=none;fillColor=none;fontSize=17;fontStyle=1" vertex="1" parent="Z7ZbEPt0gSPzM43egvNZ-61">
          <mxGeometry x="75" y="25" width="40" height="30" as="geometry" />
        </mxCell>
        <mxCell id="Z7ZbEPt0gSPzM43egvNZ-60" value="BAT" style="text;html=1;align=center;verticalAlign=middle;resizable=0;points=[];autosize=1;strokeColor=none;fillColor=none;fontSize=17;fontStyle=1" vertex="1" parent="Z7ZbEPt0gSPzM43egvNZ-61">
          <mxGeometry x="25" y="80" width="50" height="30" as="geometry" />
        </mxCell>
        <mxCell id="Z7ZbEPt0gSPzM43egvNZ-66" value="" style="group" vertex="1" connectable="0" parent="1">
          <mxGeometry x="580" y="342" width="240" height="75" as="geometry" />
        </mxCell>
        <mxCell id="Z7ZbEPt0gSPzM43egvNZ-65" value="&lt;div&gt;IGNITION&lt;/div&gt;&lt;div&gt;COIL&lt;br&gt;&lt;/div&gt;" style="text;html=1;align=center;verticalAlign=middle;resizable=0;points=[];autosize=1;strokeColor=none;fillColor=none;fontSize=17;" vertex="1" parent="Z7ZbEPt0gSPzM43egvNZ-66">
          <mxGeometry x="150" y="13" width="90" height="50" as="geometry" />
        </mxCell>
        <mxCell id="83c7Uw7BSurRXPV7c4tu-6" value="" style="rounded=0;whiteSpace=wrap;html=1;" parent="Z7ZbEPt0gSPzM43egvNZ-66" vertex="1">
          <mxGeometry x="30" y="8" width="120" height="60" as="geometry" />
        </mxCell>
        <mxCell id="Z7ZbEPt0gSPzM43egvNZ-1" value="" style="rounded=0;whiteSpace=wrap;html=1;" vertex="1" parent="Z7ZbEPt0gSPzM43egvNZ-66">
          <mxGeometry y="24.25" width="30" height="27.5" as="geometry" />
        </mxCell>
        <mxCell id="Z7ZbEPt0gSPzM43egvNZ-63" value="+" style="text;html=1;align=center;verticalAlign=middle;resizable=0;points=[];autosize=1;strokeColor=none;fillColor=none;fontSize=17;fontStyle=1" vertex="1" parent="Z7ZbEPt0gSPzM43egvNZ-66">
          <mxGeometry x="22" width="30" height="30" as="geometry" />
        </mxCell>
        <mxCell id="Z7ZbEPt0gSPzM43egvNZ-64" value="-" style="text;html=1;align=center;verticalAlign=middle;resizable=0;points=[];autosize=1;strokeColor=none;fillColor=none;fontSize=23;fontStyle=1;spacing=0;" vertex="1" parent="Z7ZbEPt0gSPzM43egvNZ-66">
          <mxGeometry x="27" y="45" width="20" height="30" as="geometry" />
        </mxCell>
        <mxCell id="Z7ZbEPt0gSPzM43egvNZ-75" value="" style="group" vertex="1" connectable="0" parent="1">
          <mxGeometry x="414" y="430.0012696863303" width="120" height="204.99873031366968" as="geometry" />
        </mxCell>
        <mxCell id="Z7ZbEPt0gSPzM43egvNZ-6" value="" style="rounded=0;whiteSpace=wrap;html=1;rotation=51;direction=east;" vertex="1" parent="Z7ZbEPt0gSPzM43egvNZ-75">
          <mxGeometry x="27.5" y="3.5687303136696755" width="13" height="8" as="geometry" />
        </mxCell>
        <mxCell id="Z7ZbEPt0gSPzM43egvNZ-7" value="" style="rounded=0;whiteSpace=wrap;html=1;" vertex="1" parent="Z7ZbEPt0gSPzM43egvNZ-75">
          <mxGeometry x="6" y="38.568730313669676" width="20" height="10" as="geometry" />
        </mxCell>
        <mxCell id="Z7ZbEPt0gSPzM43egvNZ-16" value="" style="group;flipH=1;flipV=0;" vertex="1" connectable="0" parent="Z7ZbEPt0gSPzM43egvNZ-75">
          <mxGeometry x="21" y="0.06873031366967552" width="95" height="83.56873031366968" as="geometry" />
        </mxCell>
        <mxCell id="Z7ZbEPt0gSPzM43egvNZ-13" value="" style="rounded=0;whiteSpace=wrap;html=1;rotation=309;direction=east;flipH=1;flipV=0;" vertex="1" parent="Z7ZbEPt0gSPzM43egvNZ-16">
          <mxGeometry x="60.5" y="3.5687303136696755" width="13" height="8" as="geometry" />
        </mxCell>
        <mxCell id="Z7ZbEPt0gSPzM43egvNZ-14" value="" style="rounded=0;whiteSpace=wrap;html=1;" vertex="1" parent="Z7ZbEPt0gSPzM43egvNZ-16">
          <mxGeometry x="75" y="38.568730313669676" width="20" height="10" as="geometry" />
        </mxCell>
        <mxCell id="Z7ZbEPt0gSPzM43egvNZ-3" value="" style="ellipse;whiteSpace=wrap;html=1;aspect=fixed;" vertex="1" parent="Z7ZbEPt0gSPzM43egvNZ-75">
          <mxGeometry x="21" y="3.5687303136696755" width="80" height="80" as="geometry" />
        </mxCell>
        <mxCell id="Z7ZbEPt0gSPzM43egvNZ-18" value="S&amp;nbsp;&amp;nbsp;&amp;nbsp;&amp;nbsp;&amp;nbsp; I" style="text;html=1;align=center;verticalAlign=middle;resizable=0;points=[];autosize=1;strokeColor=none;fillColor=none;fontSize=17;" vertex="1" parent="Z7ZbEPt0gSPzM43egvNZ-75">
          <mxGeometry x="30" y="5" width="60" height="30" as="geometry" />
        </mxCell>
        <mxCell id="Z7ZbEPt0gSPzM43egvNZ-74" value="" style="group" vertex="1" connectable="0" parent="Z7ZbEPt0gSPzM43egvNZ-75">
          <mxGeometry y="79.99873031366968" width="120" height="125" as="geometry" />
        </mxCell>
        <mxCell id="Z7ZbEPt0gSPzM43egvNZ-71" value="&lt;div&gt;STARTER&lt;/div&gt;&lt;div&gt;SOLENOID&lt;br&gt;&lt;/div&gt;" style="text;html=1;align=center;verticalAlign=middle;resizable=0;points=[];autosize=1;strokeColor=none;fillColor=none;fontSize=17;" vertex="1" parent="Z7ZbEPt0gSPzM43egvNZ-74">
          <mxGeometry x="10" width="100" height="50" as="geometry" />
        </mxCell>
        <mxCell id="Z7ZbEPt0gSPzM43egvNZ-72" value="&lt;div&gt;S = ACTUATING&lt;/div&gt;&lt;div&gt;COIL TERMINAL&lt;br&gt;&lt;/div&gt;" style="text;html=1;align=center;verticalAlign=middle;resizable=0;points=[];autosize=1;strokeColor=none;fillColor=none;fontSize=12;" vertex="1" parent="Z7ZbEPt0gSPzM43egvNZ-74">
          <mxGeometry x="5" y="55" width="110" height="30" as="geometry" />
        </mxCell>
        <mxCell id="Z7ZbEPt0gSPzM43egvNZ-73" value="&lt;div&gt;I = AUX SWITCHED&lt;/div&gt;&lt;div&gt;OUTPUT TERM&lt;br&gt;&lt;/div&gt;" style="text;html=1;align=center;verticalAlign=middle;resizable=0;points=[];autosize=1;strokeColor=none;fillColor=none;fontSize=12;" vertex="1" parent="Z7ZbEPt0gSPzM43egvNZ-74">
          <mxGeometry y="95" width="120" height="30" as="geometry" />
        </mxCell>
        <mxCell id="Z7ZbEPt0gSPzM43egvNZ-77" value="" style="group" vertex="1" connectable="0" parent="1">
          <mxGeometry x="160" y="220" width="120" height="50" as="geometry" />
        </mxCell>
        <mxCell id="Z7ZbEPt0gSPzM43egvNZ-43" value="" style="group" vertex="1" connectable="0" parent="Z7ZbEPt0gSPzM43egvNZ-77">
          <mxGeometry x="70" width="50" height="50" as="geometry" />
        </mxCell>
        <mxCell id="Z7ZbEPt0gSPzM43egvNZ-39" value="" style="ellipse;whiteSpace=wrap;html=1;aspect=fixed;fontSize=17;" vertex="1" parent="Z7ZbEPt0gSPzM43egvNZ-43">
          <mxGeometry width="50" height="50" as="geometry" />
        </mxCell>
        <mxCell id="Z7ZbEPt0gSPzM43egvNZ-40" value="" style="ellipse;whiteSpace=wrap;html=1;aspect=fixed;fontSize=17;" vertex="1" parent="Z7ZbEPt0gSPzM43egvNZ-43">
          <mxGeometry x="19.444444444444443" y="3.3333333333333335" width="11.11111111111111" height="11.11111111111111" as="geometry" />
        </mxCell>
        <mxCell id="Z7ZbEPt0gSPzM43egvNZ-42" value="" style="ellipse;whiteSpace=wrap;html=1;aspect=fixed;fontSize=17;" vertex="1" parent="Z7ZbEPt0gSPzM43egvNZ-43">
          <mxGeometry x="19.444444444444443" y="35.55555555555556" width="11.11111111111111" height="11.11111111111111" as="geometry" />
        </mxCell>
        <mxCell id="Z7ZbEPt0gSPzM43egvNZ-76" value="AMMETER" style="text;html=1;align=center;verticalAlign=middle;resizable=0;points=[];autosize=1;strokeColor=none;fillColor=none;fontSize=12;" vertex="1" parent="Z7ZbEPt0gSPzM43egvNZ-77">
          <mxGeometry y="15" width="70" height="20" as="geometry" />
        </mxCell>
        <mxCell id="Z7ZbEPt0gSPzM43egvNZ-81" value="" style="group" vertex="1" connectable="0" parent="1">
          <mxGeometry x="381" y="230" width="123" height="83" as="geometry" />
        </mxCell>
        <mxCell id="Z7ZbEPt0gSPzM43egvNZ-62" value="" style="group" vertex="1" connectable="0" parent="Z7ZbEPt0gSPzM43egvNZ-81">
          <mxGeometry x="29" width="60" height="70" as="geometry" />
        </mxCell>
        <mxCell id="Z7ZbEPt0gSPzM43egvNZ-20" value="" style="ellipse;whiteSpace=wrap;html=1;aspect=fixed;fontSize=17;" vertex="1" parent="Z7ZbEPt0gSPzM43egvNZ-62">
          <mxGeometry y="30" width="10" height="10" as="geometry" />
        </mxCell>
        <mxCell id="Z7ZbEPt0gSPzM43egvNZ-22" value="" style="ellipse;whiteSpace=wrap;html=1;aspect=fixed;fontSize=17;" vertex="1" parent="Z7ZbEPt0gSPzM43egvNZ-62">
          <mxGeometry x="50" y="30" width="10" height="10" as="geometry" />
        </mxCell>
        <mxCell id="Z7ZbEPt0gSPzM43egvNZ-23" value="" style="ellipse;whiteSpace=wrap;html=1;aspect=fixed;fontSize=17;" vertex="1" parent="Z7ZbEPt0gSPzM43egvNZ-62">
          <mxGeometry x="40" y="60" width="10" height="10" as="geometry" />
        </mxCell>
        <mxCell id="Z7ZbEPt0gSPzM43egvNZ-28" value="" style="endArrow=classic;html=1;rounded=0;fontSize=17;exitX=1;exitY=0;exitDx=0;exitDy=0;" edge="1" parent="Z7ZbEPt0gSPzM43egvNZ-62" source="Z7ZbEPt0gSPzM43egvNZ-20">
          <mxGeometry width="50" height="50" relative="1" as="geometry">
            <mxPoint x="10" y="30" as="sourcePoint" />
            <mxPoint x="30" as="targetPoint" />
          </mxGeometry>
        </mxCell>
        <mxCell id="Z7ZbEPt0gSPzM43egvNZ-29" value="" style="endArrow=classic;html=1;rounded=0;fontSize=17;exitX=1;exitY=0;exitDx=0;exitDy=0;" edge="1" parent="Z7ZbEPt0gSPzM43egvNZ-62" source="Z7ZbEPt0gSPzM43egvNZ-20">
          <mxGeometry width="50" height="50" relative="1" as="geometry">
            <mxPoint x="14.995533905926834" y="40.00446609407311" as="sourcePoint" />
            <mxPoint x="50" y="20" as="targetPoint" />
          </mxGeometry>
        </mxCell>
        <mxCell id="Z7ZbEPt0gSPzM43egvNZ-78" value="BAT" style="text;html=1;align=center;verticalAlign=middle;resizable=0;points=[];autosize=1;strokeColor=none;fillColor=none;fontSize=12;" vertex="1" parent="Z7ZbEPt0gSPzM43egvNZ-81">
          <mxGeometry y="15" width="40" height="20" as="geometry" />
        </mxCell>
        <mxCell id="Z7ZbEPt0gSPzM43egvNZ-79" value="START" style="text;html=1;align=center;verticalAlign=middle;resizable=0;points=[];autosize=1;strokeColor=none;fillColor=none;fontSize=12;" vertex="1" parent="Z7ZbEPt0gSPzM43egvNZ-81">
          <mxGeometry x="73" y="63" width="50" height="20" as="geometry" />
        </mxCell>
        <mxCell id="Z7ZbEPt0gSPzM43egvNZ-80" value="IGN" style="text;html=1;align=center;verticalAlign=middle;resizable=0;points=[];autosize=1;strokeColor=none;fillColor=none;fontSize=12;" vertex="1" parent="Z7ZbEPt0gSPzM43egvNZ-81">
          <mxGeometry x="79" y="15" width="40" height="20" as="geometry" />
        </mxCell>
      </root>
    </mxGraphModel>
  </diagram>
</mxfile>
